<svg width="16" height="16" viewBox="0 0 16 16" fill="none" xmlns="http://www.w3.org/2000/svg">
<g clip-path="url(#clip0_205_1981)">
<path d="M10.833 2.4165V13.4165C10.833 14.6473 11.6822 15.3332 12.583 15.3332C13.4163 15.3332 14.333 14.7498 14.333 13.4165V2.49984C14.333 1.3715 13.4997 0.666504 12.583 0.666504C11.6663 0.666504 10.833 1.444 10.833 2.4165Z" fill="#F9AB00"/>
<path d="M6.25 8V13.4167C6.25 14.6475 7.09917 15.3333 8 15.3333C8.83333 15.3333 9.75 14.75 9.75 13.4167V8.08333C9.75 6.955 8.91667 6.25 8 6.25C7.08333 6.25 6.25 7.0275 6.25 8Z" fill="#E37400"/>
<path d="M3.41602 15.3333C4.38251 15.3333 5.16602 14.5498 5.16602 13.5833C5.16602 12.6168 4.38251 11.8333 3.41602 11.8333C2.44952 11.8333 1.66602 12.6168 1.66602 13.5833C1.66602 14.5498 2.44952 15.3333 3.41602 15.3333Z" fill="#E37400"/>
</g>
<defs>
<clipPath id="clip0_205_1981">
<rect width="16" height="16" fill="white"/>
</clipPath>
</defs>
</svg>
