<svg width="72" height="72" viewBox="0 0 72 72" fill="none" xmlns="http://www.w3.org/2000/svg">
<g id="Group 305">
<circle id="Ellipse 15" cx="36" cy="36" r="36" fill="#22263B"/>
<path id="C." d="M50.0505 32.2165H42.8146C42.7181 31.4736 42.5203 30.8031 42.2213 30.2049C41.9222 29.6068 41.5266 29.0954 41.0346 28.6709C40.5425 28.2464 39.9588 27.9232 39.2835 27.7013C38.6178 27.4698 37.8797 27.354 37.0693 27.354C35.6318 27.354 34.392 27.7061 33.3501 28.4104C32.3177 29.1147 31.5218 30.1326 30.9622 31.464C30.4123 32.7954 30.1373 34.4066 30.1373 36.2975C30.1373 38.2657 30.4171 39.9155 30.9767 41.2469C31.5459 42.5686 32.3419 43.5672 33.3645 44.2425C34.3969 44.9082 35.6173 45.2411 37.0259 45.2411C37.817 45.2411 38.5358 45.1398 39.1822 44.9372C39.8382 44.7346 40.4123 44.4403 40.9043 44.0544C41.406 43.6588 41.816 43.1813 42.1344 42.6217C42.4624 42.0525 42.6892 41.4109 42.8146 40.6969L50.0505 40.7404C49.9251 42.0525 49.544 43.3453 48.9072 44.6188C48.2801 45.8923 47.4166 47.0549 46.3168 48.1065C45.2169 49.1484 43.8759 49.9782 42.2936 50.5956C40.721 51.2131 38.9169 51.5218 36.8812 51.5218C34.1991 51.5218 31.7968 50.9333 29.6742 49.7563C27.5614 48.5696 25.8923 46.8426 24.667 44.5754C23.4417 42.3081 22.8291 39.5488 22.8291 36.2975C22.8291 33.0366 23.4514 30.2725 24.696 28.0052C25.9405 25.738 27.6241 24.0158 29.7466 22.8388C31.8691 21.6618 34.2473 21.0732 36.8812 21.0732C38.6757 21.0732 40.3351 21.3241 41.8595 21.8258C43.3838 22.3178 44.7249 23.0414 45.8826 23.9965C47.0403 24.942 47.981 26.1046 48.7046 27.4842C49.4282 28.8639 49.8768 30.4413 50.0505 32.2165Z" fill="white"/>
</g>
</svg>
