<svg width="15" height="13" viewBox="0 0 15 13" fill="none" xmlns="http://www.w3.org/2000/svg">
<path fill-rule="evenodd" clip-rule="evenodd" d="M7.22114 1.44423C6.97592 1.16176 6.69006 0.915125 6.37469 0.709405C5.67774 0.254789 4.83666 0 3.97163 0C1.74752 0 0 1.71418 0 3.89587C0 4.67107 0.184675 5.4072 0.501023 6.10752C1.48221 8.28163 3.73027 10.1163 5.66534 11.6956C6.22245 12.1502 6.75361 12.5837 7.22114 12.998C7.68866 12.5837 8.21983 12.1502 8.77693 11.6956C10.712 10.1163 12.96 8.28169 13.9412 6.10764C14.2576 5.40728 14.4423 4.67111 14.4423 3.89587C14.4423 1.71418 12.6948 0 10.4706 0C9.60561 0 8.76453 0.254789 8.06759 0.709405C7.75221 0.915125 7.46635 1.16176 7.22114 1.44423ZM7.22114 11.0988C7.45423 10.9057 7.69248 10.7109 7.93038 10.5164C8.13189 10.3516 8.33313 10.1871 8.53074 10.0239C9.3218 9.3708 10.0961 8.70726 10.7818 8.01188C11.6303 7.15133 12.261 6.32306 12.6282 5.50553C12.8704 4.96576 12.998 4.43113 12.998 3.89587C12.998 2.5379 11.9235 1.44423 10.4706 1.44423C9.61247 1.44423 8.81161 1.8152 8.31174 2.391L7.22114 3.64728L6.13054 2.391C5.63067 1.8152 4.82981 1.44423 3.97163 1.44423C2.51879 1.44423 1.44423 2.5379 1.44423 3.89587C1.44423 4.43113 1.57185 4.96576 1.81405 5.50553C2.18128 6.32306 2.81193 7.15133 3.66046 8.01188C4.34614 8.70726 5.12047 9.3708 5.91153 10.0239C6.10914 10.1871 6.31039 10.3516 6.5119 10.5164C6.74979 10.7109 6.98805 10.9057 7.22114 11.0988Z" fill="#22263B"/>
</svg>
