<svg width="41" height="41" viewBox="0 0 41 41" fill="none" xmlns="http://www.w3.org/2000/svg">
<g id="Group 305">
<circle id="Ellipse 15" cx="20.5" cy="20.5" r="20.5" fill="#22263B"/>
<path id="C." d="M28.5011 18.3455H24.3806C24.3257 17.9224 24.2131 17.5406 24.0428 17.2C23.8724 16.8594 23.6472 16.5682 23.367 16.3265C23.0868 16.0847 22.7544 15.9007 22.3699 15.7743C21.9908 15.6425 21.5705 15.5765 21.109 15.5765C20.2904 15.5765 19.5844 15.7771 18.9911 16.1781C18.4033 16.5792 17.95 17.1588 17.6314 17.9169C17.3182 18.6751 17.1616 19.5926 17.1616 20.6694C17.1616 21.7901 17.321 22.7296 17.6396 23.4878C17.9637 24.2404 18.417 24.809 18.9993 25.1936C19.5872 25.5727 20.2822 25.7622 21.0843 25.7622C21.5348 25.7622 21.9441 25.7046 22.3122 25.5892C22.6858 25.4738 23.0126 25.3062 23.2928 25.0865C23.5785 24.8612 23.812 24.5893 23.9933 24.2706C24.1801 23.9465 24.3092 23.5812 24.3806 23.1746L28.5011 23.1993C28.4296 23.9465 28.2126 24.6827 27.85 25.4079C27.4929 26.1331 27.0012 26.7951 26.3749 27.3939C25.7486 27.9873 24.985 28.4597 24.084 28.8114C23.1884 29.163 22.1611 29.3388 21.0019 29.3388C19.4746 29.3388 18.1066 29.0036 16.8979 28.3334C15.6948 27.6576 14.7443 26.6742 14.0466 25.3832C13.3489 24.0921 13 22.5208 13 20.6694C13 18.8124 13.3544 17.2384 14.0631 15.9474C14.7718 14.6563 15.7305 13.6756 16.9391 13.0054C18.1478 12.3351 19.502 12 21.0019 12C22.0237 12 22.9687 12.1428 23.8367 12.4285C24.7048 12.7087 25.4684 13.1208 26.1277 13.6647C26.787 14.2031 27.3226 14.8651 27.7347 15.6507C28.1467 16.4363 28.4022 17.3346 28.5011 18.3455Z" fill="white"/>
</g>
</svg>
