<svg width="50" height="43" viewBox="0 0 50 43" fill="none" xmlns="http://www.w3.org/2000/svg">
<path id="Vector" d="M46.4286 7.14286H33.9286V4.98214C33.9286 3.6608 33.4037 2.39357 32.4693 1.45924C31.535 0.524903 30.2678 0 28.9464 0H21.0536C19.7322 0 18.465 0.524903 17.5307 1.45924C16.5963 2.39357 16.0714 3.6608 16.0714 4.98214V7.14286H3.57143C2.62423 7.14286 1.71582 7.51913 1.04605 8.1889C0.376274 8.85868 0 9.76708 0 10.7143V39.2857C0 40.2329 0.376274 41.1413 1.04605 41.8111C1.71582 42.4809 2.62423 42.8571 3.57143 42.8571H46.4286C47.3758 42.8571 48.2842 42.4809 48.954 41.8111C49.6237 41.1413 50 40.2329 50 39.2857V10.7143C50 9.76708 49.6237 8.85868 48.954 8.1889C48.2842 7.51913 47.3758 7.14286 46.4286 7.14286ZM19.6429 4.98214C19.6429 4.608 19.7915 4.24918 20.056 3.98462C20.3206 3.72006 20.6794 3.57143 21.0536 3.57143H28.9464C29.3206 3.57143 29.6794 3.72006 29.944 3.98462C30.2085 4.24918 30.3571 4.608 30.3571 4.98214V7.14286H19.6429V4.98214ZM46.4286 10.7143V11.75C42.1451 16.3749 36.5281 19.5517 30.3571 20.8393V20.4107C30.3338 19.2548 29.8594 18.1539 29.0353 17.343C28.2111 16.5322 27.1026 16.0759 25.9464 16.0714H24.0536C22.8852 16.0761 21.7661 16.5423 20.9399 17.3685C20.1138 18.1946 19.6476 19.3138 19.6429 20.4821V20.9107C13.4973 19.6518 7.887 16.535 3.57143 11.9821V10.7143H46.4286ZM26.7857 20.4821V25.9464C26.7857 26.169 26.6973 26.3825 26.5399 26.5399C26.3825 26.6973 26.169 26.7857 25.9464 26.7857H24.0536C23.831 26.7857 23.6175 26.6973 23.4601 26.5399C23.3027 26.3825 23.2143 26.169 23.2143 25.9464V20.4821C23.2143 20.2596 23.3027 20.0461 23.4601 19.8887C23.6175 19.7313 23.831 19.6429 24.0536 19.6429H25.9464C26.169 19.6429 26.3825 19.7313 26.5399 19.8887C26.6973 20.0461 26.7857 20.2596 26.7857 20.4821ZM46.4286 39.2857H3.57143V16.8571C8.12907 20.8329 13.6863 23.488 19.6429 24.5357V25.9464C19.6476 27.1148 20.1138 28.2339 20.9399 29.0601C21.7661 29.8862 22.8852 30.3524 24.0536 30.3571H25.9464C27.1148 30.3524 28.2339 29.8862 29.0601 29.0601C29.8862 28.2339 30.3524 27.1148 30.3571 25.9464V24.5357C36.3185 23.47 41.8755 20.7964 46.4286 16.8036V39.2857Z" fill="#22263B"/>
</svg>
