<svg width="22" height="22" viewBox="0 0 22 22" fill="none" xmlns="http://www.w3.org/2000/svg">
<path d="M19.5556 0H2.44444C1.09633 0 0 1.09633 0 2.44444V19.5556C0 20.9037 1.09633 22 2.44444 22H19.5556C20.9037 22 22 20.9037 22 19.5556V2.44444C22 1.09633 20.9037 0 19.5556 0ZM2.44444 19.5556V2.44444H19.5556L19.558 19.5556H2.44444Z" fill="#737380"/>
<path d="M8.55556 13.4444L7.33333 12.2222L3.66667 17.1111H18.3333L12.2222 8.55556L8.55556 13.4444Z" fill="#737380"/>
<path d="M6.72222 9.77778C7.73474 9.77778 8.55556 8.95697 8.55556 7.94444C8.55556 6.93192 7.73474 6.11111 6.72222 6.11111C5.7097 6.11111 4.88889 6.93192 4.88889 7.94444C4.88889 8.95697 5.7097 9.77778 6.72222 9.77778Z" fill="#737380"/>
</svg>
