<svg width="102" height="23" viewBox="0 0 102 23" fill="none" xmlns="http://www.w3.org/2000/svg">
<path fill-rule="evenodd" clip-rule="evenodd" d="M2.67278 6.84648L1.50942 8.62788C1.30445 8.92903 1.12181 9.22087 0.922736 9.50694C0.595144 9.97771 0.633779 10.2036 0.999323 10.5607C1.37268 10.9253 2.98626 12.4158 3.12888 12.8795C3.26521 13.3231 3.15381 13.7707 2.91062 14.0516C2.51726 14.5058 0.700915 15.1837 0.161231 15.7491C-0.20993 16.138 0.149866 16.5494 0.342502 16.8021L2.21913 19.3729C2.97817 20.4143 3.07696 19.6164 5.07909 18.7757C5.77853 18.4821 6.57373 18.2475 7.39483 18.1098C10.0752 17.6604 12.4924 18.1443 14.7733 19.4051C15.8339 19.9915 15.7721 20.1633 16.5363 19.1133L18.415 16.5442C18.9482 15.7869 17.8523 15.356 17.337 15.0446C16.5785 14.7003 15.1452 14.2437 15.4182 12.9773C15.5271 12.4721 16.3365 11.8061 16.6387 11.5013C18.0215 10.1062 18.1684 10.2728 17.4128 9.14784L13.6828 3.55685C12.9738 2.50174 12.2287 1.11671 11.2799 0.564555C9.99214 -0.184892 8.40227 -0.218869 7.15712 0.647858C6.26245 1.27057 5.50121 2.63491 4.82 3.65605L2.67278 6.84648ZM9.30997 6.0958L7.64872 8.52198C7.37168 8.92575 7.11424 9.3202 6.83337 9.74027C6.68417 9.96346 6.57729 10.135 6.41863 10.3675L5.19102 12.2152C5.06826 12.4113 4.84535 12.6039 4.92372 12.9308C5.10348 13.6799 6.18339 13.1588 7.26618 13.0203C9.34929 12.7539 10.8959 12.9036 12.9224 13.3121C13.2439 13.3769 13.4823 13.2645 13.6011 13.0514C13.7828 12.7255 13.5702 12.5069 13.4273 12.2826C13.1537 11.8532 12.878 11.4629 12.5959 11.0323C12.0529 10.2036 11.5087 9.38665 10.9501 8.56157L9.30997 6.0958Z" fill="#15162B"/>
<path d="M32.4195 6.70143C31.6304 5.60124 30.4105 4.97949 28.8319 4.97949C25.4597 4.97949 23.1875 7.32332 23.1875 10.8152C23.1875 14.2832 25.4597 16.6988 28.8319 16.675C30.4105 16.675 31.6304 16.0292 32.4195 14.9051L32.7544 16.1727C32.8023 16.3161 32.874 16.4119 33.0174 16.4119H34.8591C35.0026 16.4119 35.0984 16.2923 35.0984 16.1727V5.40998C35.0984 5.26639 35.0026 5.17076 34.8591 5.17076H33.0414C32.898 5.17076 32.8262 5.26639 32.7784 5.40998L32.4195 6.70143ZM25.8902 10.8152C25.8902 8.9258 27.1338 7.68202 28.9993 7.68202C30.8889 7.68202 32.1805 8.9258 32.2043 10.8152C32.1805 12.7047 30.8889 13.9723 28.9993 13.9723C27.1578 13.9723 25.8902 12.6807 25.8902 10.8152Z" fill="#15162B"/>
<path d="M46.4606 6.70113C45.6714 5.60094 44.4516 4.97919 42.8731 4.97919C39.5007 4.97919 37.2285 7.32303 37.2285 10.815C37.2285 14.283 39.5007 16.6987 42.8731 16.6747C44.4516 16.6747 45.6714 16.0289 46.4606 14.9048L46.7954 16.1724C46.8434 16.316 46.915 16.4116 47.0586 16.4116H48.9002C49.0437 16.4116 49.1394 16.292 49.1394 16.1724V3.04488C49.1394 2.9013 49.0437 2.80566 48.9002 2.80566H47.0589C46.9153 2.80566 46.8436 2.9013 46.7957 3.04488L46.4606 6.70113ZM39.9312 10.815C39.9312 8.92551 41.1748 7.68172 43.0405 7.68172C44.9299 7.68172 46.2215 8.92551 46.2453 10.815C46.2215 12.7044 44.9299 13.972 43.0405 13.972C41.1988 13.972 39.9312 12.6806 39.9312 10.815Z" fill="#15162B"/>
<path d="M50.6464 5.50535L54.856 16.1964C54.9038 16.3399 55.0472 16.4116 55.1668 16.4116H57.7021C57.8457 16.4116 57.9651 16.3399 58.0131 16.1964L62.2225 5.50535C62.2943 5.31409 62.2225 5.19434 62.0071 5.19434H59.5676C59.448 5.19434 59.3524 5.26613 59.3046 5.38574L56.4345 13.1827L53.5405 5.36176C53.5165 5.26613 53.3969 5.19434 53.2775 5.19434H50.8379C50.6465 5.19434 50.5747 5.31409 50.6464 5.50535Z" fill="#15162B"/>
<path d="M63.0352 10.7679C63.0352 14.2599 65.379 16.6516 68.8708 16.6516C72.3628 16.6516 74.7306 14.2599 74.7306 10.7679C74.7306 7.27603 72.3628 4.9082 68.8708 4.9082C65.379 4.9082 63.0352 7.27603 63.0352 10.7679ZM65.7617 10.7918C65.7617 8.8785 67.0054 7.63471 68.8708 7.63471C70.7605 7.63471 72.0041 8.8785 72.0041 10.7918C72.0041 12.6574 70.7605 13.9488 68.8708 13.9488C67.0054 13.9488 65.7617 12.6574 65.7617 10.7918Z" fill="#15162B"/>
<path d="M76.166 10.7669C76.166 14.2589 78.5098 16.6507 82.0018 16.6507C85.4938 16.6507 87.8615 14.2589 87.8615 10.7669C87.8615 7.27505 85.4938 4.90723 82.0018 4.90723C78.5098 4.90723 76.166 7.27505 76.166 10.7669ZM78.8927 10.7909C78.8927 8.87752 80.1363 7.63373 82.0018 7.63373C83.8913 7.63373 85.135 8.87752 85.135 10.7909C85.135 12.6564 83.8913 13.9479 82.0018 13.9479C80.1363 13.9479 78.8927 12.6564 78.8927 10.7909Z" fill="#15162B"/>
<path fill-rule="evenodd" clip-rule="evenodd" d="M95.2283 19.7081V21.798C95.2164 21.8935 95.2774 22.0975 95.4993 22.0968C98.8576 22.0856 101.159 19.6179 101.136 16.1011L101.112 5.43392C101.112 5.29047 101.016 5.19484 100.873 5.19484H99.3182C99.1986 5.19484 99.103 5.24266 99.0312 5.43392L98.6246 6.77333C97.8354 5.60135 96.5916 4.93164 94.9653 4.93164C91.5689 4.93164 89.2969 7.32344 89.2969 10.8154C89.2969 14.3073 91.5689 16.6512 94.9653 16.6751C96.472 16.6751 97.644 16.1011 98.4093 15.1204V16.0293C98.4093 17.9694 97.3698 19.2025 95.4459 19.3605C95.1759 19.3827 95.2265 19.6138 95.2283 19.7081ZM92.0234 10.7914C92.0234 8.90193 93.2672 7.6343 95.1327 7.6343C97.07 7.6343 98.3855 8.90193 98.3855 10.7914C98.3855 12.681 97.07 13.9486 95.1327 13.9486C93.2672 13.9486 92.0234 12.681 92.0234 10.7914Z" fill="#15162B"/>
</svg>
