<svg width="75" height="25" viewBox="0 0 75 25" fill="none" xmlns="http://www.w3.org/2000/svg">
<path d="M28.765 21.3961C25.9777 19.6006 22.195 19.2855 16.0945 20.978C9.59104 22.5063 7.42268 23.486 4.57501 21.5193C3.481 20.5532 3.08877 18.9977 3.38165 16.7571C4.06096 13.1044 5.89674 9.58934 9.15752 5.69026C10.9777 3.66197 12.666 1.92133 14.8954 1.22236C16.604 0.783872 16.4442 2.12667 16.2375 2.31871C16.0193 2.31871 15.6529 2.35307 15.3696 2.5379C15.1398 2.71618 14.5088 3.29184 14.4749 4.06619C14.426 5.25159 15.6528 5.00486 16.1819 4.35402C16.7522 3.62059 17.5951 2.21609 16.9321 0.907093C16.6542 0.441174 16.174 0.119169 15.5779 0.00952442C13.5365 -0.107143 11.6352 0.865988 9.88065 1.94184C6.04337 4.60748 2.97379 8.30113 1.23689 12.3442C0.235481 14.7836 -0.670141 18.278 0.687355 21.1221C1.73745 23.0956 3.91761 24.1438 6.51865 23.9246C8.34291 23.7329 10.5488 23.1433 12.0324 22.7873C13.5161 22.4308 21.1106 19.8202 23.6059 24.3637C23.6059 24.3637 24.4357 22.753 26.5094 22.7186C28.2142 22.5613 30.6737 23.2121 32.4648 24.5276C31.8681 23.6302 30.1763 22.3076 28.765 21.3961Z" fill="#22263B"/>
<path d="M16.8691 6.14924C15.4486 5.21731 12.5938 6.99897 10.3071 10.0551C8.21612 12.7964 7.31322 15.9824 8.29581 17.4557C9.75752 19.1894 12.471 16.6677 13.6249 15.318L13.7738 15.1602C14.5586 14.3173 15.1648 13.3031 15.7516 12.33C15.7516 12.33 16.291 11.4392 16.3167 11.398C16.6501 11.3365 17.0515 11.2406 17.504 11.1103C17.4975 11.1307 15.773 14.0294 15.9489 15.4682C16.0037 15.9071 15.9618 17.5106 17.5274 17.997C19.6139 18.3468 21.28 16.7293 22.7499 15.2903C22.7499 15.2903 23.0004 15.0507 23.142 14.9139C23.1062 15.0574 23.0594 15.2489 23.0594 15.2489C22.4486 17.3733 23.272 17.819 23.7871 17.9835C25.3437 18.436 27.2034 16.1745 27.2094 16.1745C27.1611 16.8868 27.0201 17.4762 27.7711 17.949C28.4799 18.2028 29.1972 17.816 29.7424 17.4528C31.7064 16.0686 33.2886 13.9022 34.5666 12.0295H33.7514C33.7418 12.0295 31.7399 14.931 30.44 15.5616C30.4379 15.5616 30.2014 15.6831 30.0651 15.587C29.8964 15.443 29.9629 15.1438 30.0671 14.9318C30.0737 14.9179 35.0862 6.22424 35.0862 6.22424H32.7195C32.7195 6.22424 32.461 6.6425 32.4399 6.66994C32.424 6.65627 32.3861 6.58436 32.3598 6.5499C30.8935 4.52162 27.5729 7.64148 25.073 11.2595C24.1106 12.6507 22.8852 14.2171 21.6146 15.3477C21.6146 15.3477 19.7323 17.0732 18.928 15.8335C18.634 15.3126 18.7244 14.5511 18.8902 14.051C19.8267 11.3853 21.4402 8.96611 23.2764 7.50636C23.7947 7.10234 24.3581 6.98548 24.6377 7.15683C24.9041 7.3147 24.9471 7.70496 24.7785 7.97228C24.3509 7.95861 24.0083 8.08858 23.7298 8.37641C23.1811 8.95206 22.9904 9.50722 23.1649 10.0281C24.0123 11.2341 25.7025 8.84935 25.6208 7.39663C25.5916 6.87574 25.3137 6.38248 24.899 6.14241C24.2809 5.77256 23.338 5.86834 22.7278 6.16319C21.9109 6.47144 20.6179 7.54719 19.8631 8.38333C18.9129 9.43193 17.2833 10.5967 16.7736 10.4663C16.9406 10.0207 18.3171 7.2044 16.8691 6.14924ZM28.2793 10.3156C28.7397 9.67838 30.0797 7.972 30.4064 7.68427C31.5051 6.71769 31.9442 7.14297 31.9822 7.44429C30.9568 9.28072 29.7466 11.3846 28.6088 13.276C28.6111 13.2692 28.2527 13.8172 28.2527 13.8172C27.7502 14.5846 27.2442 15.2424 26.4188 15.7015C26.3011 15.736 26.1071 15.7497 25.978 15.6535C25.8226 15.5507 25.7612 15.3793 25.7787 15.2011C25.8282 14.6119 26.4281 12.81 28.2793 10.3156ZM15.4043 11.4187C15.4043 11.4187 15.3837 11.4806 15.3735 11.5009C15.3708 11.5009 14.3416 13.1795 14.3416 13.1795C13.7205 14.0088 12.9449 15.0507 11.9754 15.5507C11.688 15.6467 11.2909 15.7085 11.0884 15.4551C10.6593 14.941 10.8805 14.2284 11.0601 13.6528L11.1237 13.4472C11.6389 12.0495 12.4563 10.8157 13.2519 9.67135C13.2618 9.66461 13.2841 9.65778 13.2922 9.65778C13.294 9.66461 13.2972 9.66461 13.2986 9.67838C13.7979 10.6376 14.734 11.0828 15.4341 11.2887C15.4383 11.2887 15.4428 11.2955 15.4428 11.3093C15.4429 11.3297 15.4315 11.3573 15.4043 11.4187ZM16.3794 9.43858C16.3749 9.45225 15.9209 10.4937 15.9209 10.4937C15.8553 10.5485 15.7515 10.5212 15.6326 10.4937L15.4289 10.4593C14.7891 10.2607 14.3065 9.83577 14.1577 9.32875C13.9525 8.34195 14.7955 7.5676 15.1669 7.28679C15.5233 7.03988 16.0773 6.90973 16.399 7.16339C16.5974 7.39644 16.6726 7.69784 16.6726 8.02697C16.6727 8.47229 16.5353 8.97248 16.3794 9.43858Z" fill="#22263B"/>
<path d="M46.2982 12.6183C46.07 12.125 45.5282 11.8098 44.9509 11.844C43.0761 12.0154 41.2423 13.5572 40.2794 15.7704C39.7742 16.908 39.4985 17.8467 39.3176 19.3405C39.9006 18.6692 41.0898 17.566 42.4392 16.9629C42.4392 16.9629 42.6228 15.5308 43.5591 14.2561C43.9134 13.7283 44.6225 12.8787 45.4187 13.1047C46.1143 13.3379 45.8698 15.2634 44.9453 17.1269C44.2612 18.4976 43.2144 19.8685 42.1552 20.8139C41.2188 21.6089 39.8333 22.5681 38.6211 21.8282C37.8576 21.3761 37.4682 20.4302 37.5505 19.2105C37.9153 15.7501 39.4905 12.8034 41.7447 9.44572C44.0691 6.32783 46.6313 3.12772 50.0829 1.42116C50.7869 1.06489 51.4389 0.982676 52.0024 1.20197C52.0024 1.20197 48.7623 2.98362 47.2179 6.27979C46.825 7.11594 46.2785 8.24628 46.8288 9.24685C47.1164 9.76754 47.6269 9.80874 48.038 9.7813C49.9312 9.34263 51.1543 7.57474 52.1536 5.95769C52.733 4.7311 53.248 3.51134 53.248 2.1545C53.248 1.99008 53.2395 1.77088 53.2256 1.60627C54.1301 1.12678 55.9847 1.97631 55.9847 1.97631C57.4341 2.45618 60.5202 4.82042 61.5612 5.27249C62.069 4.68325 62.9034 3.79252 63.3733 3.34701L62.6931 2.92894C61.6042 2.26424 60.4531 1.63371 59.3202 1.0102C56.7472 -0.394389 54.6529 0.0988715 53.587 0.482674C53.1681 0.63333 52.7852 0.763574 52.7852 0.763574C51.9942 -0.0998184 50.6969 -0.0177957 49.741 0.215351C46.3033 1.20206 43.1117 3.60722 39.6898 7.78055C37.1741 11.0493 35.6136 13.8726 34.7819 16.6615C34.1408 18.5389 33.9459 21.3005 35.5107 22.9384C36.8411 24.329 38.6053 24.0278 39.8511 23.5277C42.5502 22.1983 44.9762 19.3338 46.185 16.0377C46.4767 15.0579 46.8004 13.6737 46.2982 12.6183ZM52.5048 2.29167C52.1475 6.38953 48.9622 8.79497 48.174 8.98655C47.6964 9.08233 46.8814 8.87007 47.609 7.1503C48.6804 4.83391 50.5096 2.86742 52.4723 1.86002C52.52 2.03137 52.5188 2.14073 52.5048 2.29167Z" fill="#22263B"/>
<path d="M71.4012 2.81212C69.6878 3.78534 67.9117 4.41559 65.7616 4.19639C65.1657 4.86812 64.5855 5.56016 64.0508 6.27271C67.0685 7.04022 70.2678 5.33394 72.0519 3.71006C73.9394 2.07223 74.9073 0.00976562 74.9073 0.00976562C74.9073 0.00976562 73.4925 1.62681 71.4012 2.81212Z" fill="#22263B"/>
<path d="M37.751 8.28454L39.0193 6.22461H36.7717L35.5039 8.28454H37.751Z" fill="#22263B"/>
<path d="M65.7517 21.5866C65.51 21.751 65.1705 21.6246 65.2975 21.2478C65.6137 20.2885 66.8708 18.3334 66.8708 18.3334L70.3723 12.1231H67.9738C67.8598 12.3103 67.616 12.7404 67.616 12.7404C67.5051 12.5556 67.1732 12.1445 67.0366 12.0558C66.4507 11.6854 65.5909 11.8605 64.9978 12.1962C62.4193 13.704 60.5379 16.6829 59.0542 19.0061C59.0542 19.0061 57.4923 21.5885 56.6253 21.7805C55.9484 21.8354 56.0182 20.9236 56.0475 20.7111C56.3092 19.1759 56.917 17.7165 57.5294 16.3939C58.7748 15.5305 60.1961 14.3999 61.4878 13.1596C64.291 10.48 66.6542 7.44432 66.9996 6.76595C66.9996 6.76595 66.6258 6.84142 66.1843 6.85499C64.0277 9.86324 59.6146 14.2354 58.2767 14.8862C58.8694 13.4606 62.6987 6.65621 65.9574 3.40133L66.4702 2.90779C67.2631 2.13344 68.0847 1.33859 68.725 1.20834C68.7926 1.20151 68.8797 1.20834 68.9549 1.36621C68.9834 1.96911 68.759 2.41462 68.5015 2.92164L68.1406 3.66182C68.1406 3.66182 68.6518 3.56584 68.9875 3.45592C69.377 2.72305 69.8084 1.90048 69.6494 0.920794C69.5963 0.605531 69.3681 0.365736 69.0699 0.310867C68.0978 0.125848 67.0383 0.845139 66.1859 1.42782L66.1514 1.44823C61.7693 4.88139 58.0689 9.82897 54.8338 16.5856C54.5993 16.7635 53.6934 16.9762 53.5394 16.8733C53.8589 16.2156 54.2611 15.3314 54.4624 14.3721C54.4972 14.0979 54.5296 13.8171 54.5296 13.543C54.5296 12.9532 54.3881 12.3984 53.8597 12.0147C53.2402 11.7063 52.4746 11.8503 51.9584 12.0832C49.6458 13.0426 47.9174 15.4137 46.6702 17.3665C45.9995 18.6071 45.3306 19.9358 45.1454 21.4574C45.015 22.6495 45.2805 23.417 45.9584 23.8009C46.6555 24.157 47.5328 23.7869 47.8775 23.6089C50.2203 22.3755 51.8572 19.9019 53.1475 17.6403C53.1988 17.6336 53.9033 17.6132 54.4362 17.4759C54.4433 17.4759 54.4463 17.4759 54.4581 17.4831C54.4276 17.5855 54.1522 18.408 54.1522 18.408C53.3344 20.8063 52.9562 22.4374 53.7287 23.4034C54.8325 24.7671 56.66 23.3556 58.1466 21.4914C57.8275 23.7253 58.9853 24.0749 59.8678 23.9037C60.8815 23.6298 62.0112 22.5468 62.5355 21.9919C62.3671 22.6428 62.4129 23.8079 63.3351 23.9242C63.9672 24.0411 64.4403 23.6973 64.9876 23.4025C66.951 22.3334 69.3013 18.771 69.9115 17.741H69.1114C68.244 19.0519 67.1402 20.7708 65.7517 21.5866ZM48.1282 21.348C48.0037 21.163 47.9624 20.9607 47.9583 20.7419C47.9344 19.3983 49.38 16.992 50.4004 15.6811C50.4026 15.6811 50.4026 15.6811 50.4026 15.6811C50.8302 16.6175 51.7985 17.2194 52.3831 17.473C51.6571 19.0903 49.1671 22.554 48.1282 21.348ZM52.7928 16.75C52.7236 16.7982 51.5026 16.3869 51.2666 15.2562C51.0664 14.2828 51.7367 13.5222 52.3853 13.1388C52.6636 12.9194 53.0829 12.8442 53.3905 12.9534C53.676 13.1456 53.7533 13.4884 53.7533 13.8579C53.7533 14.0845 53.7233 14.3173 53.6968 14.5296C53.6968 14.5296 53.6917 14.5709 53.6909 14.5778C53.4874 15.3382 53.1761 16.0852 52.7928 16.75ZM62.5865 20.9164C62.5855 20.9164 62.3549 21.1219 62.3549 21.1219C62.0255 21.4164 61.6865 21.7316 61.2773 21.574C61.1643 21.5329 61.0848 21.3823 61.0657 21.2654C61.0471 20.4226 61.4267 19.6416 61.7947 18.8811L61.8891 18.6822C62.9479 16.9143 64.1786 14.8311 65.9861 13.3854C66.2907 13.1657 66.6213 12.981 66.9701 13.1251C67.0504 13.2002 67.1438 13.3306 67.1438 13.4606C67.1438 13.5019 67.1072 13.6115 67.0861 13.6456C66.5813 14.4614 66.1005 15.3179 65.633 16.14C64.7193 17.7642 63.7714 19.4429 62.5865 20.9164Z" fill="#22263B"/>
</svg>
