<svg width="103" height="24" viewBox="0 0 103 24" fill="none" xmlns="http://www.w3.org/2000/svg">
<path d="M11.9597 0C5.42258 0 0.102086 5.3205 0.0996842 11.86C0.0996842 13.951 0.644945 15.9915 1.68262 17.7894L0 23.935L6.28731 22.286C8.01918 23.2312 9.96962 23.7285 11.9549 23.7297H11.9597C18.4968 23.7297 23.8173 18.4092 23.8197 11.8696C23.8209 8.70135 22.5887 5.72043 20.3488 3.47934C18.1101 1.23705 15.1328 0.00120101 11.9597 0ZM11.9597 21.7264H11.9561C10.187 21.7264 8.45274 21.2508 6.93826 20.3524L6.57796 20.1386L2.84761 21.1174L3.84325 17.4796L3.60905 17.1061C2.62182 15.5363 2.10057 13.7228 2.10178 11.86C2.10418 6.42423 6.52631 2.00329 11.9633 2.00329C14.5959 2.00329 17.0712 3.03136 18.9328 4.89414C20.7944 6.75691 21.8188 9.2346 21.8176 11.8684C21.8152 17.3042 17.3931 21.7264 11.9597 21.7264ZM17.3667 14.3437C17.07 14.196 15.6132 13.479 15.3418 13.3793C15.0703 13.2808 14.8722 13.2304 14.6752 13.527C14.4782 13.8237 13.9102 14.4914 13.7372 14.6884C13.5643 14.8866 13.3913 14.9106 13.0947 14.7629C12.798 14.6139 11.8432 14.3017 10.7119 13.2916C9.83031 12.5062 9.2358 11.5357 9.06286 11.2391C8.88991 10.9424 9.04484 10.7827 9.19257 10.635C9.32588 10.5029 9.48922 10.2891 9.63694 10.1161C9.78467 9.9432 9.83391 9.8195 9.93359 9.62133C10.0321 9.42436 9.98284 9.25022 9.90837 9.10249C9.83391 8.95357 9.24181 7.49553 8.9944 6.90223C8.7542 6.32454 8.50919 6.40261 8.32784 6.393C8.15489 6.38459 7.95792 6.38219 7.75976 6.38219C7.56159 6.38219 7.24092 6.45666 6.96949 6.75331C6.69806 7.04996 5.93181 7.76696 5.93181 9.22499C5.93181 10.683 6.99351 12.093 7.14244 12.2912C7.29016 12.4882 9.2322 15.4823 12.2047 16.7662C12.9121 17.0712 13.4634 17.2538 13.8945 17.3907C14.6043 17.6165 15.2505 17.5841 15.7609 17.5084C16.3302 17.4231 17.5144 16.7914 17.7606 16.0996C18.008 15.4078 18.008 14.8145 17.9336 14.6908C17.8591 14.5671 17.6621 14.4938 17.3655 14.3449L17.3667 14.3437ZM38.3484 14.1624H38.3172L36.3511 6.22966H33.9815L31.983 14.0651H31.9506L30.1287 6.22966H27.5981L30.6439 17.7414H33.2069L35.1249 9.90477H35.1573L37.1078 17.7414H39.6227L42.7177 6.22966H40.2352L38.3484 14.1624ZM50.4366 10.1234C50.2108 9.8279 49.9022 9.59731 49.5106 9.43037C49.1179 9.26463 48.6159 9.18176 48.0034 9.18176C47.5734 9.18176 47.1326 9.29105 46.681 9.51204C46.2295 9.73182 45.8596 10.0837 45.5689 10.5677H45.5209V6.22966H43.2317V17.7414H45.5209V13.3721C45.5209 12.523 45.6602 11.9129 45.94 11.5418C46.2187 11.1718 46.6702 10.9857 47.2936 10.9857C47.8412 10.9857 48.2231 11.155 48.4381 11.4937C48.6531 11.8324 48.76 12.3452 48.76 13.0334V17.7414H51.0491V12.6143C51.0491 12.099 51.0035 11.6282 50.9122 11.2031C50.8209 10.7791 50.6624 10.4188 50.4366 10.1234ZM59.8658 15.8882V11.5514C59.8658 11.0457 59.7541 10.6398 59.5271 10.3335C59.3025 10.0273 59.0119 9.78827 58.6576 9.61653C58.3021 9.44478 57.9093 9.32828 57.4806 9.26943C57.0506 9.21058 56.6267 9.18056 56.2075 9.18056C55.7463 9.18056 55.2863 9.2262 54.8299 9.31747C54.3723 9.40875 53.9616 9.56248 53.5965 9.77626C53.2314 9.99124 52.9299 10.2759 52.6945 10.6302C52.4579 10.9845 52.3234 11.4313 52.291 11.9681H54.5801C54.6234 11.5165 54.7747 11.1935 55.0317 11.0001C55.2899 10.8067 55.643 10.7107 56.0958 10.7107C56.3 10.7107 56.4897 10.7239 56.6675 10.7503C56.844 10.7779 57.0002 10.8308 57.1347 10.9112C57.2692 10.9917 57.3761 11.1046 57.4566 11.2499C57.537 11.3952 57.5779 11.591 57.5779 11.8384C57.5887 12.075 57.5178 12.254 57.3689 12.3789C57.2176 12.5026 57.0146 12.5974 56.7564 12.6611C56.4981 12.726 56.2027 12.7752 55.87 12.8064C55.5361 12.8388 55.1986 12.8833 54.8552 12.9361C54.5105 12.9902 54.1694 13.0622 53.8319 13.1535C53.4932 13.2448 53.1917 13.3817 52.9287 13.5643C52.6657 13.748 52.4507 13.9918 52.2838 14.2981C52.118 14.6043 52.034 14.9947 52.034 15.4667C52.034 15.8966 52.106 16.2677 52.2514 16.5788C52.3967 16.8911 52.5972 17.1481 52.8555 17.3535C53.1137 17.5576 53.4139 17.709 53.7574 17.805C54.1009 17.9011 54.472 17.9504 54.8696 17.9504C55.3848 17.9504 55.8904 17.8747 56.384 17.7246C56.8789 17.5732 57.3088 17.3102 57.6739 16.9343C57.6847 17.0736 57.704 17.2117 57.7304 17.3451C57.7568 17.4784 57.7928 17.6117 57.8349 17.7402H60.1564C60.0495 17.5696 59.9727 17.3114 59.9306 16.9667C59.8874 16.6232 59.8658 16.2641 59.8658 15.8858V15.8882ZM57.5767 14.5179C57.5767 14.6476 57.5634 14.8193 57.5358 15.0343C57.5094 15.2505 57.4361 15.4619 57.3184 15.6708C57.1995 15.8798 57.017 16.0612 56.7708 16.2113C56.5234 16.3626 56.1751 16.4371 55.7223 16.4371C55.5397 16.4371 55.362 16.4215 55.1902 16.3878C55.0185 16.3566 54.8684 16.299 54.7387 16.2185C54.6101 16.138 54.5081 16.0275 54.4324 15.8882C54.3579 15.7489 54.3195 15.5772 54.3195 15.373C54.3195 15.158 54.3579 14.9791 54.4324 14.8409C54.5081 14.7016 54.6077 14.5863 54.7314 14.4938C54.854 14.4026 54.9993 14.3305 55.1662 14.2753C55.3332 14.2212 55.5013 14.1792 55.6742 14.1468C55.8568 14.1155 56.0394 14.0879 56.2219 14.0663C56.4057 14.0459 56.5798 14.017 56.7456 13.9858C56.9125 13.9534 57.0674 13.9126 57.2139 13.8645C57.3593 13.8165 57.4794 13.7492 57.5767 13.6627V14.5167V14.5179ZM64.1366 6.90824H61.8475V9.40755H60.4615V10.9388H61.8475V15.857C61.8475 16.2774 61.9183 16.6148 62.0576 16.8731C62.197 17.1301 62.3879 17.3306 62.6293 17.47C62.8707 17.6093 63.1506 17.703 63.4676 17.7522C63.7835 17.8002 64.121 17.8243 64.4753 17.8243C64.7023 17.8243 64.9317 17.8183 65.1695 17.8086C65.4049 17.7978 65.6199 17.7762 65.8144 17.7438V15.9699C65.7063 15.9915 65.5934 16.0083 65.4757 16.0179C65.358 16.0287 65.2343 16.0347 65.1046 16.0347C64.7179 16.0347 64.4597 15.9699 64.3312 15.8414C64.2027 15.7129 64.1378 15.4547 64.1378 15.0667V10.9388H65.8144V9.40755H64.1378V6.90824H64.1366ZM73.597 14.0915C73.4469 13.8285 73.2475 13.6075 73.0013 13.4297C72.7539 13.2532 72.4716 13.1103 72.1558 13.0022C71.8387 12.8953 71.5132 12.8052 71.1805 12.7296C70.8587 12.6539 70.5416 12.5842 70.2305 12.5194C69.9195 12.4545 69.6421 12.3825 69.3994 12.302C69.158 12.2215 68.9623 12.117 68.8121 11.9873C68.6608 11.8588 68.5864 11.6919 68.5864 11.4877C68.5864 11.316 68.6284 11.179 68.7149 11.077C68.8013 10.9749 68.9058 10.8968 69.0295 10.8428C69.1532 10.7899 69.2889 10.7551 69.4403 10.7383C69.5904 10.7227 69.7309 10.7155 69.8594 10.7155C70.2678 10.7155 70.6221 10.7935 70.9247 10.9485C71.225 11.1046 71.3919 11.4024 71.4232 11.8432H73.5994C73.5562 11.328 73.4252 10.9004 73.2043 10.5605C72.9845 10.2218 72.707 9.95041 72.3744 9.74744C72.0417 9.54326 71.6622 9.39794 71.2382 9.31267C70.8142 9.2262 70.3759 9.18416 69.9255 9.18416C69.4751 9.18416 69.0319 9.225 68.6044 9.30426C68.1732 9.38473 67.7865 9.52525 67.443 9.72462C67.0983 9.92278 66.8221 10.1942 66.6119 10.5389C66.4017 10.8824 66.2972 11.3244 66.2972 11.8612C66.2972 12.2263 66.3729 12.5362 66.5242 12.7884C66.6731 13.0418 66.8737 13.2496 67.1199 13.4165C67.3673 13.5835 67.6496 13.718 67.9666 13.8189C68.2837 13.9222 68.6092 14.0098 68.9407 14.0855C69.7586 14.2572 70.3951 14.429 70.8515 14.6019C71.3079 14.7737 71.536 15.0319 71.536 15.3754C71.536 15.5796 71.488 15.7477 71.3907 15.8822C71.2934 16.0179 71.1733 16.1236 71.028 16.2053C70.8827 16.2858 70.7206 16.3458 70.544 16.383C70.3663 16.4215 70.1969 16.4395 70.036 16.4395C69.8102 16.4395 69.5928 16.4119 69.3838 16.359C69.1737 16.305 68.9887 16.2221 68.8278 16.1092C68.6668 15.9963 68.5347 15.8522 68.4326 15.6744C68.3317 15.4967 68.2789 15.2853 68.2789 15.0379H66.1027C66.1243 15.5964 66.2504 16.0624 66.4822 16.4323C66.7128 16.8034 67.007 17.1013 67.3685 17.327C67.7288 17.5528 68.1396 17.7138 68.602 17.8111C69.0632 17.9071 69.5364 17.9564 70.0192 17.9564C70.502 17.9564 70.9572 17.9107 71.4135 17.8195C71.8699 17.7282 72.2759 17.5696 72.6302 17.3427C72.9857 17.1169 73.2715 16.819 73.4925 16.4479C73.7123 16.0768 73.8216 15.6168 73.8216 15.0691C73.8216 14.6812 73.7459 14.3569 73.5958 14.0939L73.597 14.0915ZM78.1428 6.23087L73.7915 17.7426H76.3377L77.2397 15.1784H81.5441L82.4136 17.7426H85.0415L80.7382 6.23087H78.1428ZM77.9014 13.2928L79.4003 9.06766H79.4327L80.8836 13.2928H77.9014ZM92.9561 10.5353C92.6451 10.127 92.2524 9.79908 91.7792 9.55167C91.306 9.30426 90.7427 9.18056 90.0869 9.18056C89.5705 9.18056 89.0985 9.28264 88.6685 9.48682C88.2374 9.69099 87.8843 10.0189 87.6044 10.4704H87.572V9.40635H85.3958V20.6611H87.6861V16.7109H87.7173C87.996 17.1193 88.3551 17.4279 88.7898 17.6369C89.2246 17.8471 89.7002 17.9516 90.2154 17.9516C90.8279 17.9516 91.3624 17.8327 91.8188 17.5961C92.2752 17.3595 92.6571 17.0424 92.9634 16.6449C93.2696 16.2473 93.4978 15.7909 93.6491 15.2745C93.7981 14.7581 93.8749 14.2212 93.8749 13.6615C93.8749 13.0706 93.7993 12.5038 93.6491 11.9597C93.4978 11.418 93.2672 10.9412 92.9549 10.5329L92.9561 10.5353ZM91.4897 14.5827C91.4249 14.9058 91.3144 15.1868 91.1582 15.4294C91.0021 15.672 90.7979 15.8678 90.5445 16.0179C90.2923 16.1681 89.9776 16.2449 89.6017 16.2449C89.2258 16.2449 88.9255 16.1693 88.6673 16.0179C88.4091 15.8678 88.2025 15.672 88.0464 15.4294C87.8903 15.188 87.7774 14.9058 87.7077 14.5827C87.6381 14.2609 87.6032 13.9318 87.6032 13.6003C87.6032 13.2688 87.6345 12.9217 87.6993 12.5998C87.7642 12.2768 87.8747 11.9921 88.0308 11.7447C88.1857 11.4985 88.3899 11.2967 88.6433 11.1406C88.8955 10.9845 89.209 10.9064 89.5861 10.9064C89.9632 10.9064 90.2611 10.9857 90.5133 11.1406C90.7655 11.2955 90.9733 11.4997 91.1342 11.7531C91.2951 12.0053 91.4104 12.2936 91.4801 12.6155C91.551 12.9385 91.5846 13.2664 91.5846 13.6003C91.5846 13.9342 91.5534 14.2609 91.4897 14.5827ZM102.772 11.9621C102.622 11.4205 102.39 10.9436 102.079 10.5353C101.768 10.127 101.376 9.79908 100.903 9.55167C100.43 9.30426 99.8656 9.18056 99.2098 9.18056C98.6946 9.18056 98.2214 9.28264 97.7914 9.48682C97.3615 9.69099 97.0072 10.0189 96.7273 10.4704H96.6961V9.40635H94.5199V20.6611H96.8078V16.7109H96.8402C97.1201 17.1193 97.478 17.4279 97.9127 17.6369C98.3475 17.8471 98.8243 17.9516 99.3395 17.9516C99.9509 17.9516 100.485 17.8327 100.943 17.5961C101.399 17.3595 101.781 17.0424 102.086 16.6449C102.394 16.2473 102.621 15.7909 102.771 15.2745C102.922 14.7581 102.997 14.2212 102.997 13.6615C102.997 13.0706 102.922 12.5038 102.771 11.9597L102.772 11.9621ZM100.611 14.5827C100.548 14.9058 100.437 15.1868 100.281 15.4294C100.125 15.672 99.9208 15.8678 99.6674 16.0179C99.4152 16.1681 99.1005 16.2449 98.7246 16.2449C98.3487 16.2449 98.0472 16.1693 97.7902 16.0179C97.532 15.8678 97.3254 15.672 97.1693 15.4294C97.0144 15.188 96.9015 14.9058 96.8306 14.5827C96.761 14.2609 96.7261 13.9318 96.7261 13.6003C96.7261 13.2688 96.7586 12.9217 96.8234 12.5998C96.8883 12.2768 96.9988 11.9921 97.1537 11.7447C97.3098 11.4985 97.514 11.2967 97.7662 11.1406C98.0184 10.9845 98.3319 10.9064 98.709 10.9064C99.0861 10.9064 99.3828 10.9857 99.635 11.1406C99.8884 11.2955 100.095 11.4997 100.256 11.7531C100.418 12.0053 100.533 12.2936 100.603 12.6155C100.674 12.9385 100.708 13.2664 100.708 13.6003C100.708 13.9342 100.675 14.2609 100.61 14.5827H100.611Z" fill="#22263B"/>
</svg>
