<svg width="70" height="25" viewBox="0 0 70 25" fill="none" xmlns="http://www.w3.org/2000/svg">
<path d="M7.61723 24.6007C5.55969 24.5189 3.87632 23.9559 2.56005 22.9102C2.30885 22.7105 1.71026 22.1115 1.50944 21.8589C0.975676 21.1877 0.612788 20.5345 0.370745 19.8098C-0.374057 17.5789 0.00926588 14.6515 1.46716 11.4387C2.71543 8.68817 4.64155 5.96017 8.00197 2.18191C8.49697 1.62594 9.97108 0 9.98059 0C9.98411 0 9.90378 0.139165 9.80267 0.308632C8.92892 1.77216 8.1813 3.49605 7.77402 4.98848C7.11976 7.38319 7.19868 9.43826 8.00514 11.0318C8.56145 12.1296 9.51518 13.0805 10.5876 13.6062C12.4651 14.5261 15.2139 14.6022 18.5708 13.8289C18.8019 13.7753 30.2544 10.7351 44.0209 7.07279C57.7874 3.41008 69.0528 0.415735 69.0546 0.418201C69.0584 0.421377 37.0711 14.1089 20.4659 21.2099C17.8362 22.3342 17.133 22.6181 15.8967 23.0522C12.7364 24.162 9.90554 24.6915 7.61723 24.6007Z" fill="#22263B"/>
</svg>
