<svg width="102" height="22" viewBox="0 0 102 22" fill="none" xmlns="http://www.w3.org/2000/svg">
<path d="M42.0074 4.30897V17.234H39.7635V7.09145H39.7335L35.7244 17.234H34.2284L30.1295 7.09145H30.0996V17.234H28.0352V4.30897H31.2664L34.9764 13.8831H35.0362L38.9556 4.30897H42.0074ZM43.8624 5.29631C43.8624 4.93728 43.9821 4.63809 44.2513 4.39873C44.5206 4.15938 44.8198 4.0397 45.1788 4.0397C45.5678 4.0397 45.8969 4.15938 46.1362 4.39873C46.3756 4.63809 46.5252 4.93728 46.5252 5.29631C46.5252 5.65534 46.4055 5.95453 46.1362 6.19388C45.867 6.43323 45.5678 6.55291 45.1788 6.55291C44.7899 6.55291 44.4907 6.43323 44.2513 6.19388C44.012 5.92461 43.8624 5.62542 43.8624 5.29631ZM46.2858 7.95911V17.234H44.1017V7.95911H46.2858ZM52.898 15.6483C53.2271 15.6483 53.5861 15.5885 53.975 15.409C54.364 15.2594 54.723 15.0499 55.0521 14.8106V16.8451C54.6931 17.0545 54.3042 17.2041 53.8554 17.2939C53.4066 17.3836 52.9279 17.4435 52.3893 17.4435C51.0131 17.4435 49.906 17.0246 49.0683 16.157C48.2007 15.2893 47.7818 14.1823 47.7818 12.8658C47.7818 11.3699 48.2306 10.1432 49.0982 9.18579C49.9659 8.22838 51.1926 7.74967 52.8082 7.74967C53.2271 7.74967 53.6459 7.80951 54.0349 7.89927C54.4538 7.98903 54.7829 8.13862 55.0222 8.2583V10.3526C54.6931 10.1133 54.3341 9.90385 54.005 9.78418C53.6459 9.6645 53.2869 9.57474 52.9279 9.57474C52.0602 9.57474 51.3721 9.84401 50.8335 10.4125C50.295 10.9809 50.0556 11.7289 50.0556 12.6863C50.0556 13.6138 50.3249 14.3618 50.8335 14.8704C51.3422 15.3791 52.0303 15.6483 52.898 15.6483ZM61.2454 7.80951C61.4249 7.80951 61.5745 7.80951 61.7241 7.83943C61.8737 7.86935 61.9934 7.89927 62.0831 7.92919V10.1432C61.9635 10.0534 61.8139 9.96369 61.5745 9.90385C61.3352 9.84401 61.0958 9.78418 60.7667 9.78418C60.2281 9.78418 59.7794 10.0235 59.4203 10.4723C59.0613 10.9211 58.8519 11.6092 58.8519 12.5667V17.234H56.6678V7.95911H58.8519V9.42515H58.8818C59.0912 8.91652 59.3904 8.52757 59.7794 8.22838C60.1982 7.95911 60.6769 7.80951 61.2454 7.80951ZM62.2028 12.7462C62.2028 11.2203 62.6516 9.99361 63.4893 9.09604C64.357 8.19846 65.5537 7.74967 67.0796 7.74967C68.5157 7.74967 69.6527 8.16854 70.4605 9.0362C71.2683 9.90385 71.6872 11.0707 71.6872 12.5367C71.6872 14.0327 71.2384 15.2295 70.4007 16.127C69.533 17.0246 68.3661 17.4734 66.8702 17.4734C65.4341 17.4734 64.2971 17.0545 63.4594 16.2168C62.6217 15.3491 62.2028 14.1823 62.2028 12.7462ZM64.4767 12.6564C64.4767 13.6138 64.6861 14.3618 65.1349 14.8704C65.5837 15.3791 66.212 15.6483 67.0198 15.6483C67.7977 15.6483 68.426 15.409 68.8449 14.8704C69.2637 14.3618 69.4732 13.6138 69.4732 12.5966C69.4732 11.6092 69.2637 10.8613 68.8449 10.3227C68.426 9.8141 67.7977 9.54482 67.0497 9.54482C66.2419 9.54482 65.6435 9.81409 65.1947 10.3526C64.6861 10.9211 64.4767 11.6691 64.4767 12.6564ZM74.9484 10.4125C74.9484 10.7117 75.0381 10.9809 75.2475 11.1605C75.457 11.34 75.8758 11.5494 76.564 11.8187C77.4316 12.1777 78.0599 12.5667 78.3891 12.9855C78.7481 13.4343 78.9276 13.9429 78.9276 14.5712C78.9276 15.4389 78.5985 16.127 77.9104 16.6656C77.2521 17.2041 76.3246 17.4435 75.1877 17.4435C74.7988 17.4435 74.3799 17.3836 73.9012 17.2939C73.4225 17.2041 73.0335 17.0844 72.7044 16.9348V14.7807C73.0934 15.0499 73.5422 15.2893 73.9909 15.4389C74.4397 15.5885 74.8586 15.6782 75.2475 15.6782C75.7263 15.6782 76.1152 15.6184 76.3246 15.4688C76.564 15.3192 76.6837 15.1098 76.6837 14.7807C76.6837 14.4815 76.564 14.2421 76.3246 14.0028C76.0853 13.7933 75.6066 13.554 74.9484 13.2847C74.1405 12.9556 73.5721 12.5667 73.243 12.1478C72.9139 11.7289 72.7343 11.1904 72.7343 10.5322C72.7343 9.69442 73.0634 9.00628 73.7217 8.46773C74.3799 7.92919 75.2475 7.65992 76.2947 7.65992C76.6238 7.65992 76.9829 7.68984 77.3718 7.77959C77.7608 7.86935 78.1198 7.95911 78.3891 8.04887V10.1731C78.0899 9.99361 77.7608 9.81409 77.3718 9.6645C76.9829 9.5149 76.5939 9.45507 76.2349 9.45507C75.816 9.45507 75.4869 9.54482 75.2775 9.69442C75.068 9.90385 74.9484 10.1133 74.9484 10.4125ZM79.8551 12.7462C79.8551 11.2203 80.3039 9.99361 81.1416 9.09604C82.0093 8.19846 83.206 7.74967 84.7319 7.74967C86.168 7.74967 87.305 8.16854 88.1128 9.0362C88.9206 9.90385 89.3395 11.0707 89.3395 12.5367C89.3395 14.0327 88.8907 15.2295 88.0529 16.127C87.1853 17.0246 86.0184 17.4734 84.5225 17.4734C83.0864 17.4734 81.9494 17.0545 81.1117 16.2168C80.3039 15.3491 79.8551 14.1823 79.8551 12.7462ZM82.1289 12.6564C82.1289 13.6138 82.3384 14.3618 82.7872 14.8704C83.236 15.3791 83.8643 15.6483 84.6721 15.6483C85.45 15.6483 86.0783 15.409 86.4971 14.8704C86.916 14.3618 87.1254 13.6138 87.1254 12.5966C87.1254 11.6092 86.916 10.8613 86.4971 10.3227C86.0783 9.8141 85.45 9.54482 84.702 9.54482C83.8942 9.54482 83.2958 9.81409 82.847 10.3526C82.3683 10.9211 82.1289 11.6691 82.1289 12.6564ZM96.6098 9.75426H93.3486V17.234H91.1346V9.75426H89.5788V7.95911H91.1346V6.67259C91.1346 5.71517 91.4637 4.90736 92.092 4.27906C92.7203 3.65075 93.5281 3.35156 94.5155 3.35156C94.7847 3.35156 95.0241 3.38148 95.2335 3.38148C95.443 3.38148 95.6225 3.44132 95.7721 3.50116V5.38606C95.7122 5.35614 95.5626 5.29631 95.3831 5.23647C95.2036 5.17663 94.9942 5.14671 94.7548 5.14671C94.306 5.14671 93.947 5.29631 93.7077 5.56558C93.4683 5.83485 93.3486 6.28364 93.3486 6.82218V7.92919H96.6098V5.83485L98.7939 5.17663V7.92919H101.008V9.72434H98.7939V14.0626C98.7939 14.6311 98.9136 15.02 99.0931 15.2594C99.3025 15.4987 99.6316 15.6184 100.08 15.6184C100.2 15.6184 100.35 15.5885 100.529 15.5286C100.709 15.4688 100.858 15.409 100.978 15.3192V17.1144C100.828 17.2041 100.619 17.264 100.29 17.3238C99.9608 17.3836 99.6616 17.4136 99.3325 17.4136C98.405 17.4136 97.7168 17.1742 97.268 16.6955C96.8192 16.2168 96.5799 15.4688 96.5799 14.4815L96.6098 9.75426Z" fill="#22263B"/>
<path d="M10.2323 0H0V10.2323H10.2323V0Z" fill="#22263B"/>
<path d="M21.5409 0H11.3086V10.2323H21.5409V0Z" fill="#22263B"/>
<path d="M10.2323 11.3096H0V21.5419H10.2323V11.3096Z" fill="#22263B"/>
<path d="M21.5409 11.3096H11.3086V21.5419H21.5409V11.3096Z" fill="#22263B"/>
</svg>
