<svg width="18" height="12" viewBox="0 0 18 12" fill="none" xmlns="http://www.w3.org/2000/svg">
<path d="M2.13788 7.66795C2.13788 8.33637 2.28459 8.84955 2.47635 9.16002C2.72777 9.56668 3.10276 9.73895 3.48507 9.73895C3.97816 9.73895 4.42925 9.61659 5.29856 8.41428C5.99499 7.45062 6.81559 6.09795 7.36774 5.24995L8.3028 3.81328C8.95234 2.81552 9.70417 1.70635 10.5662 0.954536C11.2699 0.340908 12.029 0 12.793 0C14.0757 0 15.2975 0.743295 16.2325 2.13736C17.2558 3.66413 17.7526 5.58721 17.7526 7.57177C17.7526 8.75155 17.52 9.61841 17.1243 10.3033C16.742 10.9656 15.9969 11.6273 14.7435 11.6273V9.73895C15.8167 9.73895 16.0846 8.75276 16.0846 7.62411C16.0846 6.01577 15.7096 4.23088 14.8835 2.95553C14.2973 2.05092 13.5375 1.49816 12.7017 1.49816C11.7977 1.49816 11.0702 2.17997 10.2527 3.39566C9.818 4.04156 9.37178 4.82869 8.87077 5.71687L8.31923 6.69393C7.21129 8.6584 6.93065 9.10584 6.37668 9.84426C5.40571 11.1373 4.57657 11.6273 3.48507 11.6273C2.19023 11.6273 1.37145 11.0667 0.86435 10.2217C0.450394 9.53319 0.24707 8.62979 0.24707 7.60038L2.13788 7.66795Z" fill="#0081FB"/>
<path d="M1.7373 2.27067C2.60418 0.934442 3.85518 0 5.29003 0C6.12099 0 6.94708 0.245941 7.80969 0.950279C8.75327 1.72036 9.75894 2.98841 11.0136 5.07828L11.4635 5.82828C12.5495 7.63751 13.1674 8.56831 13.529 9.00722C13.9941 9.57093 14.3198 9.73895 14.7429 9.73895C15.8161 9.73895 16.084 8.75276 16.084 7.62411L17.752 7.57177C17.752 8.75155 17.5194 9.61841 17.1237 10.3033C16.7414 10.9656 15.9963 11.6273 14.7429 11.6273C13.9636 11.6273 13.2733 11.4581 12.5099 10.7379C11.9231 10.1852 11.237 9.20324 10.7092 8.32054L9.13922 5.698C8.35149 4.38186 7.62889 3.40053 7.21067 2.95614C6.7608 2.47826 6.18248 1.90116 5.25959 1.90116C4.51264 1.90116 3.87832 2.4253 3.34748 3.22704L1.7373 2.27067Z" fill="url(#paint0_linear_205_2022)"/>
<path d="M5.26021 1.90116C4.51326 1.90116 3.87894 2.4253 3.3481 3.22704C2.59749 4.35994 2.13788 6.04743 2.13788 7.66795C2.13788 8.33637 2.28459 8.84955 2.47635 9.16002L0.86435 10.2217C0.450394 9.53319 0.24707 8.62979 0.24707 7.60038C0.24707 5.72844 0.760862 3.77735 1.73792 2.27067C2.6048 0.934442 3.8558 0 5.29065 0L5.26021 1.90116Z" fill="url(#paint1_linear_205_2022)"/>
<defs>
<linearGradient id="paint0_linear_205_2022" x1="3.95989" y1="7.1225" x2="16.0133" y2="7.73126" gradientUnits="userSpaceOnUse">
<stop stop-color="#0064E1"/>
<stop offset="0.4" stop-color="#0064E1"/>
<stop offset="0.83" stop-color="#0073EE"/>
<stop offset="1" stop-color="#0082FB"/>
</linearGradient>
<linearGradient id="paint1_linear_205_2022" x1="2.98649" y1="8.46177" x2="2.98649" y2="4.01782" gradientUnits="userSpaceOnUse">
<stop stop-color="#0082FB"/>
<stop offset="1" stop-color="#0064E0"/>
</linearGradient>
</defs>
</svg>
