<svg width="18" height="20" viewBox="0 0 18 20" fill="none" xmlns="http://www.w3.org/2000/svg">
<g id="Notifica&#195;&#167;&#195;&#181;es">
<path id="notification / notification outline" fill-rule="evenodd" clip-rule="evenodd" d="M14 14V8.5C14 5.43 12.87 2.86 10 2.18V0H6V2.18C3.14 2.86 2 5.42 2 8.5V14L0 15V17H16V15L14 14ZM8 20C9.1 20 10 19.1 10 18H6C6 19.1 6.9 20 8 20ZM4 15H12V8.5C12 6.02 11 3.75 8 3.75C5 3.75 4 6.02 4 8.5V15Z" fill="#22263B"/>
<circle id="Ellipse 12" cx="13.5" cy="4.5" r="4.5" fill="#036EFA"/>
</g>
</svg>
