<svg width="16" height="16" viewBox="0 0 16 16" fill="none" xmlns="http://www.w3.org/2000/svg">
<path d="M0 1.99927C0 3.10384 0.895431 3.99927 2 3.99927C3.10457 3.99927 4 3.10384 4 1.99927C4 0.894698 3.10457 -0.000732422 2 -0.000732422C0.895431 -0.000732422 0 0.894698 0 1.99927Z" fill="#0C2447"/>
<path d="M6 13.9993C6 15.1038 6.89543 15.9993 8 15.9993C9.10457 15.9993 10 15.1038 10 13.9993C10 12.8947 9.10457 11.9993 8 11.9993C6.89543 11.9993 6 12.8947 6 13.9993Z" fill="#0C2447"/>
<path d="M2 15.9993C0.895431 15.9993 0 15.1038 0 13.9993C0 12.8947 0.895431 11.9993 2 11.9993C3.10457 11.9993 4 12.8947 4 13.9993C4 15.1038 3.10457 15.9993 2 15.9993Z" fill="#0C2447"/>
<path d="M0 7.99927C0 9.10384 0.895431 9.99927 2 9.99927C3.10457 9.99927 4 9.10384 4 7.99927C4 6.8947 3.10457 5.99927 2 5.99927C0.895431 5.99927 0 6.8947 0 7.99927Z" fill="#0C2447"/>
<path d="M8 9.99927C6.89543 9.99927 6 9.10384 6 7.99927C6 6.8947 6.89543 5.99927 8 5.99927C9.10457 5.99927 10 6.8947 10 7.99927C10 9.10384 9.10457 9.99927 8 9.99927Z" fill="#0C2447"/>
<path d="M14 -0.000732422C12.8954 -0.000732422 12 0.894698 12 1.99927C12 3.10384 12.8954 3.99927 14 3.99927C15.1046 3.99927 16 3.10384 16 1.99927C16 0.894698 15.1046 -0.000732422 14 -0.000732422Z" fill="#0C2447"/>
<path d="M8 3.99927C6.89543 3.99927 6 3.10384 6 1.99927C6 0.894698 6.89543 -0.000732422 8 -0.000732422C9.10457 -0.000732422 10 0.894698 10 1.99927C10 3.10384 9.10457 3.99927 8 3.99927Z" fill="#0C2447"/>
<path d="M12 7.99927C12 9.10384 12.8954 9.99927 14 9.99927C15.1046 9.99927 16 9.10384 16 7.99927C16 6.8947 15.1046 5.99927 14 5.99927C12.8954 5.99927 12 6.8947 12 7.99927Z" fill="#0C2447"/>
<path d="M14 15.9993C12.8954 15.9993 12 15.1038 12 13.9993C12 12.8947 12.8954 11.9993 14 11.9993C15.1046 11.9993 16 12.8947 16 13.9993C16 15.1038 15.1046 15.9993 14 15.9993Z" fill="#0C2447"/>
</svg>
