<svg width="13" height="13" viewBox="0 0 13 13" fill="none" xmlns="http://www.w3.org/2000/svg">
<path d="M2.27466 8.44873C2.86607 8.44873 3.40094 8.21607 3.80648 7.84432L7.87487 10.169C7.83002 10.3477 7.79883 10.531 7.79883 10.7234C7.79883 11.9777 8.81917 12.998 10.0735 12.998C11.3278 12.998 12.3481 11.9777 12.3481 10.7234C12.3481 9.46908 11.3278 8.44873 10.0735 8.44873C9.48207 8.44873 8.94721 8.6814 8.54167 9.05314L4.47328 6.72844C4.51422 6.56791 4.54022 6.40219 4.54347 6.22931L8.54102 3.94491C8.94721 4.31665 9.48207 4.54932 10.0735 4.54932C11.3278 4.54932 12.3481 3.52897 12.3481 2.27466C12.3481 1.02035 11.3278 0 10.0735 0C8.81917 0 7.79883 1.02035 7.79883 2.27466C7.79883 2.46703 7.83002 2.6503 7.87487 2.82903L4.18082 4.94056C3.77463 4.31535 3.07339 3.89941 2.27466 3.89941C1.02035 3.89941 0 4.91976 0 6.17407C0 7.42838 1.02035 8.44873 2.27466 8.44873ZM10.0735 9.74854C10.611 9.74854 11.0483 10.1859 11.0483 10.7234C11.0483 11.2609 10.611 11.6982 10.0735 11.6982C9.53602 11.6982 9.09863 11.2609 9.09863 10.7234C9.09863 10.1859 9.53602 9.74854 10.0735 9.74854ZM10.0735 1.2998C10.611 1.2998 11.0483 1.73719 11.0483 2.27466C11.0483 2.81213 10.611 3.24951 10.0735 3.24951C9.53602 3.24951 9.09863 2.81213 9.09863 2.27466C9.09863 1.73719 9.53602 1.2998 10.0735 1.2998ZM2.27466 5.19922C2.81213 5.19922 3.24951 5.6366 3.24951 6.17407C3.24951 6.71154 2.81213 7.14893 2.27466 7.14893C1.73719 7.14893 1.2998 6.71154 1.2998 6.17407C1.2998 5.6366 1.73719 5.19922 2.27466 5.19922Z" fill="#2E3A59"/>
</svg>
