<svg width="18" height="18" viewBox="0 0 18 18" fill="none" xmlns="http://www.w3.org/2000/svg">
<path fill-rule="evenodd" clip-rule="evenodd" d="M16.9679 12.9792V15.3878C16.9698 15.84 16.7809 16.2719 16.4477 16.5776C16.1145 16.8833 15.6679 17.0343 15.2176 16.9936C12.747 16.7251 10.3738 15.8809 8.28871 14.5287C6.3488 13.296 4.70409 11.6513 3.47139 9.71141C2.11449 7.61684 1.27006 5.23209 1.00652 2.75037C0.965955 2.30146 1.11593 1.85616 1.41982 1.52326C1.72371 1.19036 2.15352 1.0005 2.60427 1.00008H5.01293C5.81892 0.992146 6.5059 1.58295 6.61871 2.38105C6.72037 3.15187 6.90891 3.90872 7.18073 4.63716C7.40131 5.22397 7.26023 5.88549 6.81943 6.33125L5.79976 7.35092C6.94272 9.36098 8.60702 11.0253 10.6171 12.1682L11.6368 11.1486C12.0825 10.7078 12.744 10.5667 13.3308 10.7873C14.0593 11.0591 14.8161 11.2476 15.587 11.3493C16.3943 11.4632 16.9882 12.1641 16.9679 12.9792Z" stroke="#22263B" stroke-width="1.60577" stroke-linecap="round" stroke-linejoin="round"/>
</svg>
