<svg width="17" height="18" viewBox="0 0 17 18" fill="none" xmlns="http://www.w3.org/2000/svg">
<path d="M8.53557 0C3.87006 0 0.0728584 3.79721 0.071144 8.46443C0.071144 9.95674 0.460293 11.413 1.20088 12.6962L0 17.0823L4.48722 15.9054C5.72324 16.58 7.11526 16.9349 8.53214 16.9357H8.53557C13.2011 16.9357 16.9983 13.1385 17 8.47128C17.0009 6.2101 16.1214 4.08264 14.5228 2.48318C12.9251 0.882872 10.8002 0.000857157 8.53557 0ZM8.53557 15.506H8.533C7.27041 15.506 6.03267 15.1665 4.9518 14.5254L4.69465 14.3728L2.03232 15.0714L2.7429 12.4751L2.57576 12.2085C1.87117 11.0882 1.49917 9.79388 1.50003 8.46443C1.50174 4.58493 4.65779 1.42974 8.53814 1.42974C10.417 1.42974 12.1836 2.16346 13.5122 3.49292C14.8408 4.82237 15.572 6.59068 15.5711 8.47043C15.5694 12.3499 12.4134 15.506 8.53557 15.506ZM12.3945 10.237C12.1828 10.1316 11.143 9.61987 10.9493 9.54873C10.7556 9.47844 10.6142 9.44244 10.4736 9.65416C10.333 9.86588 9.92759 10.3425 9.80416 10.483C9.68073 10.6245 9.5573 10.6416 9.34558 10.5362C9.13387 10.4299 8.45243 10.207 7.64499 9.48616C7.01583 8.92558 6.59154 8.233 6.46811 8.02128C6.34468 7.80956 6.45525 7.69556 6.56068 7.59013C6.65583 7.49584 6.7724 7.34327 6.87783 7.21984C6.98326 7.0964 7.0184 7.00812 7.08955 6.86669C7.15983 6.72611 7.12469 6.60182 7.07155 6.49639C7.0184 6.39011 6.59582 5.34952 6.41925 4.92608C6.24782 4.51379 6.07296 4.5695 5.94353 4.56265C5.8201 4.55665 5.67952 4.55493 5.53809 4.55493C5.39666 4.55493 5.1678 4.60808 4.97408 4.81979C4.78037 5.03151 4.2335 5.54323 4.2335 6.58382C4.2335 7.62441 4.99123 8.63072 5.09751 8.77215C5.20294 8.91272 6.58897 11.0496 8.71043 11.9659C9.2153 12.1836 9.60873 12.3139 9.91645 12.4116C10.423 12.5728 10.8842 12.5496 11.2485 12.4956C11.6548 12.4348 12.4999 11.9839 12.6756 11.4902C12.8522 10.9965 12.8522 10.573 12.7991 10.4847C12.7459 10.3965 12.6054 10.3442 12.3936 10.2379L12.3945 10.237Z" fill="#25D366"/>
</svg>
